<svg width="96" height="96" viewBox="0 0 96 96" fill="none" xmlns="http://www.w3.org/2000/svg">
  <defs>
    <linearGradient id="bg" x1="14" y1="10" x2="82" y2="86" gradientUnits="userSpaceOnUse">
      <stop stop-color="#f2f4ff" />
      <stop offset="0.5" stop-color="#ffe4f1" />
      <stop offset="1" stop-color="#fff9ff" />
    </linearGradient>
    <linearGradient id="flow" x1="22" y1="22" x2="78" y2="78" gradientUnits="userSpaceOnUse">
      <stop stop-color="#6c7ff1" />
      <stop offset="1" stop-color="#f3a6cb" />
    </linearGradient>
    <linearGradient id="cube1" x1="22" y1="22" x2="40" y2="40" gradientUnits="userSpaceOnUse">
      <stop stop-color="#8b9dff" />
      <stop offset="1" stop-color="#6c7ff1" />
    </linearGradient>
    <linearGradient id="cube2" x1="56" y1="22" x2="76" y2="42" gradientUnits="userSpaceOnUse">
      <stop stop-color="#f3a6cb" />
      <stop offset="1" stop-color="#ffc6e2" />
    </linearGradient>
    <linearGradient id="cube3" x1="42" y1="58" x2="74" y2="86" gradientUnits="userSpaceOnUse">
      <stop stop-color="#6c7ff1" />
      <stop offset="1" stop-color="#8b9dff" />
    </linearGradient>
  </defs>

  <rect x="10" y="8" width="76" height="80" rx="20" fill="url(#bg)" stroke="#e5e9ff" stroke-width="2" />

  <rect x="22" y="22" width="18" height="18" rx="6" fill="url(#cube1)" opacity="0.95" />
  <rect x="56" y="22" width="18" height="18" rx="6" fill="url(#cube2)" opacity="0.95" />
  <rect x="44" y="56" width="22" height="22" rx="8" fill="url(#cube3)" opacity="0.95" />

  <path
    d="M24 34h27c8 0 14 5 14 12s-6 12-14 12h-12c-7 0-12 4-12 10s5 10 12 10h23"
    stroke="url(#flow)"
    stroke-width="6.5"
    stroke-linecap="round"
    stroke-linejoin="round"
    opacity="0.94"
  />

  <circle cx="36" cy="34" r="4" fill="#ffffff" stroke="#6c7ff1" stroke-width="2" />
  <circle cx="58" cy="58" r="4" fill="#ffffff" stroke="#f3a6cb" stroke-width="2" />
</svg>
